<?xml version="1.0" encoding="UTF-8" standalone="no"?>
<svg
   xmlns:dc="http://purl.org/dc/elements/1.1/"
   xmlns:cc="http://creativecommons.org/ns#"
   xmlns:rdf="http://www.w3.org/1999/02/22-rdf-syntax-ns#"
   xmlns:svg="http://www.w3.org/2000/svg"
   xmlns="http://www.w3.org/2000/svg"
   xmlns:sodipodi="http://sodipodi.sourceforge.net/DTD/sodipodi-0.dtd"
   xmlns:inkscape="http://www.inkscape.org/namespaces/inkscape"
   aria-hidden="true"
   focusable="false"
   data-prefix="far"
   data-icon="arrow-alt-circle-up"
   class="svg-inline--fa fa-arrow-alt-circle-up fa-w-16"
   role="img"
   viewBox="0 0 50 50"
   version="1.1"
   id="svg827"
   sodipodi:docname="arrow-up.svg"
   inkscape:version="0.92.4 (5da689c313, 2019-01-14)"
   width="50"
   height="50">
  <metadata
     id="metadata833">
    <rdf:RDF>
      <cc:Work
         rdf:about="">
        <dc:format>image/svg+xml</dc:format>
        <dc:type
           rdf:resource="http://purl.org/dc/dcmitype/StillImage" />
        <dc:title></dc:title>
      </cc:Work>
    </rdf:RDF>
  </metadata>
  <defs
     id="defs831" />
  <sodipodi:namedview
     pagecolor="#ffffff"
     bordercolor="#666666"
     borderopacity="1"
     objecttolerance="10"
     gridtolerance="10"
     guidetolerance="10"
     inkscape:pageopacity="0"
     inkscape:pageshadow="2"
     inkscape:window-width="1280"
     inkscape:window-height="737"
     id="namedview829"
     showgrid="false"
     inkscape:zoom="0.99609375"
     inkscape:cx="248"
     inkscape:cy="248"
     inkscape:window-x="-8"
     inkscape:window-y="-8"
     inkscape:window-maximized="1"
     inkscape:current-layer="svg827"
     fit-margin-top="0"
     fit-margin-left="0"
     fit-margin-right="0"
     fit-margin-bottom="0" />
  <path
     d="M 25,50 C 38.810484,50 50,38.81048 50,25 50,11.18952 38.810484,0 25,0 11.189516,0 0,11.18952 0,25 0,38.81048 11.189516,50 25,50 Z M 25,4.83871 C 36.139113,4.83871 45.16129,13.86089 45.16129,25 45.16129,36.13911 36.139113,45.16129 25,45.16129 13.860887,45.16129 4.83871,36.13911 4.83871,25 4.83871,13.86089 13.860887,4.83871 25,4.83871 Z m 2.016129,33.06452 h -4.032258 c -0.665323,0 -1.209677,-0.54436 -1.209677,-1.20968 V 25 h -6.754033 c -1.078629,0 -1.612903,-1.3004 -0.856855,-2.06653 l 9.979839,-9.97984 c 0.47379,-0.47379 1.23992,-0.47379 1.71371,0 l 9.979839,9.97984 C 36.602823,23.6996 36.058468,25 34.979839,25 h -6.754033 v 11.69355 c 0,0.66532 -0.544354,1.20968 -1.209677,1.20968 z"
     id="path825"
     style="fill:#0a273a;fill-opacity:1;stroke-width:0.10080645"
     inkscape:connector-curvature="0" />
</svg>
