<?xml version="1.0" encoding="UTF-8" standalone="no"?>
<svg
   xmlns:dc="http://purl.org/dc/elements/1.1/"
   xmlns:cc="http://creativecommons.org/ns#"
   xmlns:rdf="http://www.w3.org/1999/02/22-rdf-syntax-ns#"
   xmlns:svg="http://www.w3.org/2000/svg"
   xmlns="http://www.w3.org/2000/svg"
   xmlns:sodipodi="http://sodipodi.sourceforge.net/DTD/sodipodi-0.dtd"
   xmlns:inkscape="http://www.inkscape.org/namespaces/inkscape"
   aria-hidden="true"
   focusable="false"
   data-prefix="fab"
   data-icon="instagram"
   class="svg-inline--fa fa-instagram fa-w-14"
   role="img"
   viewBox="0 0 50 50"
   version="1.1"
   id="svg883"
   sodipodi:docname="instagram.svg"
   width="50"
   height="50"
   inkscape:version="0.92.4 (5da689c313, 2019-01-14)">
  <metadata
     id="metadata889">
    <rdf:RDF>
      <cc:Work
         rdf:about="">
        <dc:format>image/svg+xml</dc:format>
        <dc:type
           rdf:resource="http://purl.org/dc/dcmitype/StillImage" />
        <dc:title></dc:title>
      </cc:Work>
    </rdf:RDF>
  </metadata>
  <defs
     id="defs887" />
  <sodipodi:namedview
     pagecolor="#ffffff"
     bordercolor="#666666"
     borderopacity="1"
     objecttolerance="10"
     gridtolerance="10"
     guidetolerance="10"
     inkscape:pageopacity="0"
     inkscape:pageshadow="2"
     inkscape:window-width="1280"
     inkscape:window-height="737"
     id="namedview885"
     showgrid="false"
     fit-margin-top="0"
     fit-margin-left="0"
     fit-margin-right="0"
     fit-margin-bottom="0"
     inkscape:zoom="0.99609375"
     inkscape:cx="224.075"
     inkscape:cy="223.975"
     inkscape:window-x="-8"
     inkscape:window-y="-8"
     inkscape:window-maximized="1"
     inkscape:current-layer="svg883" />
  <path
     d="m 25.005577,12.180633 c -7.094255,0 -12.816508,5.723529 -12.816508,12.819369 0,7.095841 5.722253,12.81937 12.816508,12.81937 7.094256,0 12.816509,-5.723529 12.816509,-12.81937 0,-7.09584 -5.722253,-12.819369 -12.816509,-12.819369 z m 0,21.15363 c -4.584495,0 -8.332404,-3.73758 -8.332404,-8.33426 0,-4.59667 3.736754,-8.33427 8.332404,-8.33427 4.59565,0 8.332404,3.7376 8.332404,8.33427 0,4.59668 -3.747908,8.33426 -8.332404,8.33426 z m 16.330173,-21.678 c 0,1.66239 -1.338539,2.99006 -2.989403,2.99006 -1.662019,0 -2.989403,-1.33883 -2.989403,-2.99006 0,-1.65124 1.338538,-2.9900805 2.989403,-2.9900805 1.650864,0 2.989403,1.3388405 2.989403,2.9900805 z m 8.488567,3.03469 C 49.63469,10.685603 48.720022,7.1376825 45.786392,4.2145525 c -2.922477,-2.92312 -6.469604,-3.838 -10.474066,-4.03882 -4.127161,-0.23431 -16.497491,-0.23431 -20.624652,0 -3.993307,0.18966 -7.5404347,1.10453 -10.4740655,4.02767 -2.9336308,2.92312 -3.83714447,6.4710405 -4.03792529,10.4763905 -0.23424428,4.12809 -0.23424428,16.50117 0,20.62926 0.18962633,4.00536 1.10429449,7.553279 4.03792529,10.4764 2.9336308,2.92313 6.4696035,3.83801 10.4740655,4.03883 4.127161,0.23429 16.497491,0.23429 20.624652,0 4.004462,-0.18967 7.551589,-1.10455 10.474066,-4.03883 2.922476,-2.92312 3.837144,-6.47104 4.037925,-10.4764 0.234244,-4.12809 0.234244,-16.49001 0,-20.6181 z m -5.331846,25.04742 c -0.87005,2.18677 -2.554378,3.87147 -4.751813,4.752869 -3.290574,1.30537 -11.098717,1.00413 -14.735081,1.00413 -3.636363,0 -11.455661,0.29008 -14.735081,-1.00413 C 8.0842164,43.621003 6.3998885,41.936293 5.5186838,39.738373 4.2136085,36.447063 4.5147797,28.637183 4.5147797,25.000003 c 0,-3.63718 -0.2900167,-11.45821 1.0039041,-14.73836 0.8700502,-2.1867705 2.5543781,-3.8714805 4.7518122,-4.7528805 3.290575,-1.30536 11.098718,-1.00413 14.735081,-1.00413 3.636364,0 11.455661,-0.29008 14.735081,1.00413 2.18628,0.87024 3.870608,2.55495 4.751813,4.7528805 1.305075,3.2913 1.003904,11.10118 1.003904,14.73836 0,3.63718 0.301171,11.45822 -1.003904,14.73837 z"
     id="path881"
     style="fill:#0a273a;fill-opacity:1;stroke-width:0.11155734"
     inkscape:connector-curvature="0" />
</svg>
